%TF.GenerationSoftware,KiCad,Pcbnew,(6.0.7)*%
%TF.CreationDate,2022-10-30T23:19:10+01:00*%
%TF.ProjectId,headphone amp,68656164-7068-46f6-9e65-20616d702e6b,rev?*%
%TF.SameCoordinates,Original*%
%TF.FileFunction,Profile,NP*%
%FSLAX46Y46*%
G04 Gerber Fmt 4.6, Leading zero omitted, Abs format (unit mm)*
G04 Created by KiCad (PCBNEW (6.0.7)) date 2022-10-30 23:19:10*
%MOMM*%
%LPD*%
G01*
G04 APERTURE LIST*
%TA.AperFunction,Profile*%
%ADD10C,0.100000*%
%TD*%
%TA.AperFunction,Profile*%
%ADD11C,0.150000*%
%TD*%
%TA.AperFunction,Profile*%
%ADD12C,0.120000*%
%TD*%
G04 APERTURE END LIST*
D10*
X109000000Y-150000000D02*
X100000000Y-150000000D01*
X169700000Y-150000000D02*
X122000000Y-150000000D01*
X199949000Y-150000000D02*
X182700000Y-150000000D01*
D11*
X100000000Y-150000000D02*
X100000000Y-50051000D01*
X199949000Y-50051000D02*
X199949000Y-150000000D01*
X100000000Y-50051000D02*
X199949000Y-50051000D01*
D10*
X191836666Y-52972000D02*
G75*
G03*
X191836666Y-52972000I-1666666J0D01*
G01*
X187670000Y-52972000D02*
X192670000Y-52972000D01*
X190170000Y-50472000D02*
X190170000Y-55472000D01*
X198948666Y-139713000D02*
G75*
G03*
X198948666Y-139713000I-1666666J0D01*
G01*
X194782000Y-139713000D02*
X199782000Y-139713000D01*
X197282000Y-137213000D02*
X197282000Y-142213000D01*
X111953666Y-53226000D02*
G75*
G03*
X111953666Y-53226000I-1666666J0D01*
G01*
X107787000Y-53226000D02*
X112787000Y-53226000D01*
X110287000Y-50726000D02*
X110287000Y-55726000D01*
X104587666Y-139586000D02*
G75*
G03*
X104587666Y-139586000I-1666666J0D01*
G01*
X100421000Y-139586000D02*
X105421000Y-139586000D01*
X102921000Y-137086000D02*
X102921000Y-142086000D01*
D12*
%TO.C,J2*%
X113300000Y-149000000D02*
X113300000Y-150000000D01*
X117700000Y-150000000D02*
X122000000Y-150000000D01*
X113300000Y-150000000D02*
X109000000Y-150000000D01*
X117300000Y-148600000D02*
X113700000Y-148600000D01*
X117700000Y-149000000D02*
X117700000Y-150000000D01*
X113700000Y-148600000D02*
G75*
G03*
X113300000Y-149000000I2J-400002D01*
G01*
X117700000Y-149000000D02*
G75*
G03*
X117300000Y-148600000I-400000J0D01*
G01*
%TO.C,J3*%
X178400000Y-150000000D02*
X182700000Y-150000000D01*
X178000000Y-148600000D02*
X174400000Y-148600000D01*
X178400000Y-149000000D02*
X178400000Y-150000000D01*
X174000000Y-150000000D02*
X169700000Y-150000000D01*
X174000000Y-149000000D02*
X174000000Y-150000000D01*
X178400000Y-149000000D02*
G75*
G03*
X178000000Y-148600000I-400000J0D01*
G01*
X174400000Y-148600000D02*
G75*
G03*
X174000000Y-149000000I2J-400002D01*
G01*
%TD*%
M02*
