M48
; DRILL file {KiCad (6.0.7)} date Thu Nov  3 19:49:35 2022
; FORMAT={-:-/ absolute / inch / decimal}
; #@! TF.CreationDate,2022-11-03T19:49:35+01:00
; #@! TF.GenerationSoftware,Kicad,Pcbnew,(6.0.7)
; #@! TF.FileFunction,Plated,1,2,PTH
FMAT,2
INCH
; #@! TA.AperFunction,Plated,PTH,ComponentDrill
T1C0.0157
; #@! TA.AperFunction,Plated,PTH,ComponentDrill
T2C0.0197
; #@! TA.AperFunction,Plated,PTH,ComponentDrill
T3C0.0217
; #@! TA.AperFunction,Plated,PTH,ViaDrill
T4C0.0236
; #@! TA.AperFunction,Plated,PTH,ComponentDrill
T5C0.0315
; #@! TA.AperFunction,Plated,PTH,ComponentDrill
T6C0.0472
; #@! TA.AperFunction,Plated,PTH,ComponentDrill
T7C0.1260
%
G90
G05
T4
X4.847Y-4.1555
X4.997Y-4.1555
X6.712Y-4.1455
X6.8787Y-4.1451
T5
X4.467Y-4.7079
X4.467Y-4.8064
X4.687Y-2.7671
X4.687Y-2.8655
X4.7616Y-3.3857
X4.7616Y-3.5825
X4.7702Y-4.9445
X4.9187Y-3.5845
X4.9187Y-3.8845
X4.9374Y-2.564
X4.9374Y-2.664
X4.9374Y-2.764
X4.9374Y-2.864
X4.9671Y-4.9445
X5.0187Y-3.5845
X5.0187Y-3.8845
X5.0691Y-4.4955
X5.0691Y-4.5955
X5.0691Y-4.6955
X5.0691Y-4.7955
X5.1187Y-3.5845
X5.1187Y-3.8845
X5.1702Y-4.3251
X5.2187Y-3.5845
X5.2187Y-3.8845
X5.2374Y-2.564
X5.2374Y-2.664
X5.2374Y-2.764
X5.2374Y-2.864
X5.3671Y-4.3251
X5.3691Y-4.4955
X5.3691Y-4.5955
X5.3691Y-4.6955
X5.3691Y-4.7955
X5.3916Y-3.6857
X5.3916Y-3.8825
X5.4903Y-2.7671
X5.4903Y-2.8655
X5.5919Y-2.2055
X5.7297Y-2.2055
X6.3387Y-4.7167
X6.3387Y-4.8151
X6.3543Y-2.2055
X6.3819Y-5.5255
X6.4921Y-2.2055
X6.5197Y-5.5255
X6.577Y-2.7771
X6.577Y-2.8755
X6.6387Y-3.3798
X6.6387Y-3.5767
X6.6502Y-4.9651
X6.7883Y-3.5787
X6.7883Y-3.8787
X6.8274Y-2.574
X6.8274Y-2.674
X6.8274Y-2.774
X6.8274Y-2.874
X6.8471Y-4.9651
X6.8883Y-3.5787
X6.8883Y-3.8787
X6.9391Y-4.5055
X6.9391Y-4.6055
X6.9391Y-4.7055
X6.9391Y-4.8055
X6.9883Y-3.5787
X6.9883Y-3.8787
X7.0402Y-4.3251
X7.0883Y-3.5787
X7.0883Y-3.8787
X7.1274Y-2.574
X7.1274Y-2.674
X7.1274Y-2.774
X7.1274Y-2.874
X7.2371Y-4.3251
X7.2391Y-4.5055
X7.2391Y-4.6055
X7.2391Y-4.7055
X7.2391Y-4.8055
X7.2787Y-3.6783
X7.2787Y-3.8751
X7.3343Y-5.5255
X7.377Y-2.7771
X7.377Y-2.8755
X7.4721Y-5.5255
T6
X5.2802Y-5.5413
X5.2802Y-5.7382
X5.477Y-5.5413
X5.477Y-5.7382
X5.6739Y-5.5413
X5.6739Y-5.7382
T7
X4.077Y-2.1105
X4.077Y-5.7655
X7.732Y-2.1105
X7.732Y-5.7655
T1
G00X4.3504Y-5.5118
M15
G01X4.3504Y-5.5512
M16
G05
G00X4.4488Y-5.5118
M15
G01X4.4488Y-5.5512
M16
G05
G00X4.5276Y-5.7283
M15
G01X4.5669Y-5.7283
M16
G05
G00X4.6457Y-5.5512
M15
G01X4.6457Y-5.5118
M16
G05
G00X4.7441Y-5.5512
M15
G01X4.7441Y-5.5118
M16
G05
G00X6.7402Y-5.5118
M15
G01X6.7402Y-5.5512
M16
G05
G00X6.8386Y-5.5118
M15
G01X6.8386Y-5.5512
M16
G05
G00X6.9173Y-5.7283
M15
G01X6.9567Y-5.7283
M16
G05
G00X7.0354Y-5.5512
M15
G01X7.0354Y-5.5118
M16
G05
G00X7.1339Y-5.5512
M15
G01X7.1339Y-5.5118
M16
G05
T2
G00X5.913Y-2.0422
M15
G01X5.913Y-2.0166
M16
G05
G00X6.1886Y-2.0422
M15
G01X6.1886Y-2.0166
M16
G05
T3
G00X5.9583Y-2.1357
M15
G01X5.9465Y-2.1357
M16
G05
G00X6.1551Y-2.1357
M15
G01X6.1433Y-2.1357
M16
G05
T0
M30
