%TF.GenerationSoftware,KiCad,Pcbnew,(6.0.7)*%
%TF.CreationDate,2022-10-30T23:19:10+01:00*%
%TF.ProjectId,headphone amp,68656164-7068-46f6-9e65-20616d702e6b,rev?*%
%TF.SameCoordinates,Original*%
%TF.FileFunction,Soldermask,Top*%
%TF.FilePolarity,Negative*%
%FSLAX46Y46*%
G04 Gerber Fmt 4.6, Leading zero omitted, Abs format (unit mm)*
G04 Created by KiCad (PCBNEW (6.0.7)) date 2022-10-30 23:19:10*
%MOMM*%
%LPD*%
G01*
G04 APERTURE LIST*
G04 Aperture macros list*
%AMRoundRect*
0 Rectangle with rounded corners*
0 $1 Rounding radius*
0 $2 $3 $4 $5 $6 $7 $8 $9 X,Y pos of 4 corners*
0 Add a 4 corners polygon primitive as box body*
4,1,4,$2,$3,$4,$5,$6,$7,$8,$9,$2,$3,0*
0 Add four circle primitives for the rounded corners*
1,1,$1+$1,$2,$3*
1,1,$1+$1,$4,$5*
1,1,$1+$1,$6,$7*
1,1,$1+$1,$8,$9*
0 Add four rect primitives between the rounded corners*
20,1,$1+$1,$2,$3,$4,$5,0*
20,1,$1+$1,$4,$5,$6,$7,0*
20,1,$1+$1,$6,$7,$8,$9,0*
20,1,$1+$1,$8,$9,$2,$3,0*%
G04 Aperture macros list end*
%ADD10R,1.600000X1.600000*%
%ADD11C,1.600000*%
%ADD12C,6.400000*%
%ADD13R,2.400000X1.600000*%
%ADD14O,2.400000X1.600000*%
%ADD15RoundRect,0.250000X-0.350000X-0.450000X0.350000X-0.450000X0.350000X0.450000X-0.350000X0.450000X0*%
%ADD16RoundRect,0.250000X0.350000X0.450000X-0.350000X0.450000X-0.350000X-0.450000X0.350000X-0.450000X0*%
%ADD17RoundRect,0.250000X0.450000X-0.350000X0.450000X0.350000X-0.450000X0.350000X-0.450000X-0.350000X0*%
%ADD18R,1.600000X2.400000*%
%ADD19O,1.600000X2.400000*%
%ADD20RoundRect,0.250000X-0.450000X0.350000X-0.450000X-0.350000X0.450000X-0.350000X0.450000X0.350000X0*%
%ADD21R,0.400000X1.350000*%
%ADD22R,1.200000X1.550000*%
%ADD23O,0.890000X1.550000*%
%ADD24O,1.250000X0.950000*%
%ADD25R,1.500000X1.550000*%
%ADD26O,2.200000X1.200000*%
%ADD27O,1.200000X2.200000*%
%ADD28RoundRect,0.250000X-0.475000X0.337500X-0.475000X-0.337500X0.475000X-0.337500X0.475000X0.337500X0*%
%ADD29R,3.000000X3.000000*%
%ADD30C,3.000000*%
G04 APERTURE END LIST*
D10*
%TO.C,C19*%
X162101349Y-140348000D03*
D11*
X165601349Y-140348000D03*
%TD*%
%TO.C,C9*%
X136324000Y-109858000D03*
X131324000Y-109858000D03*
%TD*%
D12*
%TO.C,H4*%
X103683000Y-53734000D03*
%TD*%
D13*
%TO.C,U2*%
X173416000Y-65380379D03*
D14*
X173416000Y-67920379D03*
X173416000Y-70460379D03*
X173416000Y-73000379D03*
X181036000Y-73000379D03*
X181036000Y-70460379D03*
X181036000Y-67920379D03*
X181036000Y-65380379D03*
%TD*%
D12*
%TO.C,H3*%
X196393000Y-53607000D03*
%TD*%
%TO.C,H2*%
X196393000Y-146317000D03*
%TD*%
D15*
%TO.C,R4*%
X177528000Y-126114000D03*
X179528000Y-126114000D03*
%TD*%
D13*
%TO.C,U1*%
X125410000Y-65126379D03*
D14*
X125410000Y-67666379D03*
X125410000Y-70206379D03*
X125410000Y-72746379D03*
X133030000Y-72746379D03*
X133030000Y-70206379D03*
X133030000Y-67666379D03*
X133030000Y-65126379D03*
%TD*%
D11*
%TO.C,C10*%
X121164000Y-125590000D03*
X126164000Y-125590000D03*
%TD*%
D16*
%TO.C,R13*%
X132072000Y-102974000D03*
X130072000Y-102974000D03*
%TD*%
D11*
%TO.C,C11*%
X183822000Y-109858000D03*
X178822000Y-109858000D03*
%TD*%
%TO.C,C15*%
X136946000Y-98616000D03*
X136946000Y-93616000D03*
%TD*%
D15*
%TO.C,R3*%
X129522000Y-125590000D03*
X131522000Y-125590000D03*
%TD*%
D17*
%TO.C,R9*%
X140428000Y-119224000D03*
X140428000Y-117224000D03*
%TD*%
D18*
%TO.C,U6*%
X180042000Y-90898000D03*
D19*
X177502000Y-90898000D03*
X174962000Y-90898000D03*
X172422000Y-90898000D03*
X172422000Y-98518000D03*
X174962000Y-98518000D03*
X177502000Y-98518000D03*
X180042000Y-98518000D03*
%TD*%
D20*
%TO.C,R7*%
X124680000Y-109604000D03*
X124680000Y-111604000D03*
%TD*%
D21*
%TO.C,J1*%
X154990000Y-54246000D03*
X154340000Y-54246000D03*
X153690000Y-54246000D03*
X153040000Y-54246000D03*
X152390000Y-54246000D03*
D22*
X156590000Y-51546000D03*
D23*
X150190000Y-51546000D03*
D24*
X156190000Y-54246000D03*
D25*
X154690000Y-51546000D03*
D22*
X150790000Y-51546000D03*
D23*
X157190000Y-51546000D03*
D25*
X152690000Y-51546000D03*
D24*
X151190000Y-54246000D03*
%TD*%
D26*
%TO.C,J2*%
X115500000Y-145500000D03*
D27*
X110500000Y-140500000D03*
X113000000Y-140500000D03*
X120500000Y-140500000D03*
X118000000Y-140500000D03*
%TD*%
D20*
%TO.C,R2*%
X168876000Y-119780000D03*
X168876000Y-121780000D03*
%TD*%
%TO.C,R1*%
X121124000Y-119510000D03*
X121124000Y-121510000D03*
%TD*%
D11*
%TO.C,C12*%
X168916000Y-126114000D03*
X173916000Y-126114000D03*
%TD*%
D13*
%TO.C,U4*%
X176252000Y-114440000D03*
D14*
X176252000Y-116980000D03*
X176252000Y-119520000D03*
X176252000Y-122060000D03*
X183872000Y-122060000D03*
X183872000Y-119520000D03*
X183872000Y-116980000D03*
X183872000Y-114440000D03*
%TD*%
D17*
%TO.C,R5*%
X124680000Y-116700000D03*
X124680000Y-114700000D03*
%TD*%
D26*
%TO.C,J3*%
X176200000Y-145500000D03*
D27*
X171200000Y-140500000D03*
X173700000Y-140500000D03*
X181200000Y-140500000D03*
X178700000Y-140500000D03*
%TD*%
D10*
%TO.C,C4*%
X161002000Y-119804000D03*
D11*
X161002000Y-122304000D03*
%TD*%
D16*
%TO.C,R12*%
X182052000Y-86570000D03*
X180052000Y-86570000D03*
%TD*%
D28*
%TO.C,C13*%
X119854000Y-114662500D03*
X119854000Y-116737500D03*
%TD*%
D13*
%TO.C,U3*%
X128754000Y-114186000D03*
D14*
X128754000Y-116726000D03*
X128754000Y-119266000D03*
X128754000Y-121806000D03*
X136374000Y-121806000D03*
X136374000Y-119266000D03*
X136374000Y-116726000D03*
X136374000Y-114186000D03*
%TD*%
D10*
%TO.C,C3*%
X113462000Y-119581621D03*
D11*
X113462000Y-122081621D03*
%TD*%
D10*
%TO.C,C8*%
X187376000Y-70538000D03*
D11*
X187376000Y-73038000D03*
%TD*%
%TO.C,C17*%
X184878000Y-98428000D03*
X184878000Y-93428000D03*
%TD*%
D10*
%TO.C,C2*%
X142035349Y-56020000D03*
D11*
X145535349Y-56020000D03*
%TD*%
D10*
%TO.C,C1*%
X164898651Y-56020000D03*
D11*
X161398651Y-56020000D03*
%TD*%
D17*
%TO.C,R6*%
X172178000Y-116954000D03*
X172178000Y-114954000D03*
%TD*%
D20*
%TO.C,R8*%
X172178000Y-109636000D03*
X172178000Y-111636000D03*
%TD*%
D10*
%TO.C,C6*%
X119050000Y-70284000D03*
D11*
X119050000Y-72784000D03*
%TD*%
D10*
%TO.C,C5*%
X167056000Y-70538000D03*
D11*
X167056000Y-73038000D03*
%TD*%
D16*
%TO.C,R14*%
X179512000Y-102826000D03*
X177512000Y-102826000D03*
%TD*%
%TO.C,R11*%
X134612000Y-86464000D03*
X132612000Y-86464000D03*
%TD*%
D18*
%TO.C,U5*%
X132554000Y-91046000D03*
D19*
X130014000Y-91046000D03*
X127474000Y-91046000D03*
X124934000Y-91046000D03*
X124934000Y-98666000D03*
X127474000Y-98666000D03*
X130014000Y-98666000D03*
X132554000Y-98666000D03*
%TD*%
D28*
%TO.C,C14*%
X167098000Y-114895000D03*
X167098000Y-116970000D03*
%TD*%
D11*
%TO.C,C18*%
X168622000Y-85848000D03*
X168622000Y-90848000D03*
%TD*%
D17*
%TO.C,R10*%
X188434000Y-119478000D03*
X188434000Y-117478000D03*
%TD*%
D11*
%TO.C,C16*%
X120944000Y-85996000D03*
X120944000Y-90996000D03*
%TD*%
D10*
%TO.C,C20*%
X189790651Y-140348000D03*
D11*
X186290651Y-140348000D03*
%TD*%
D29*
%TO.C,RV1*%
X134116000Y-145750000D03*
D30*
X139116000Y-145750000D03*
X144116000Y-145750000D03*
X134116000Y-140750000D03*
X139116000Y-140750000D03*
X144116000Y-140750000D03*
%TD*%
D12*
%TO.C,H1*%
X103810000Y-146317000D03*
%TD*%
D10*
%TO.C,C7*%
X139454000Y-70284000D03*
D11*
X139454000Y-72784000D03*
%TD*%
M02*
